<!DOCTYPE svg PUBLIC "-//W3C//DTD SVG 1.1//EN" "http://www.w3.org/Graphics/SVG/1.1/DTD/svg11.dtd">
<!-- Uploaded to: SVG Repo, www.svgrepo.com, Transformed by: SVG Repo Mixer Tools -->
<svg height="800px" width="800px" version="1.1" id="Layer_1" xmlns="http://www.w3.org/2000/svg" xmlns:xlink="http://www.w3.org/1999/xlink" viewBox="0 0 512 512" xml:space="preserve" fill="#000000">
<g id="SVGRepo_bgCarrier" stroke-width="0"/>
<g id="SVGRepo_tracerCarrier" stroke-linecap="round" stroke-linejoin="round"/>
<g id="SVGRepo_iconCarrier"> <path style="fill:#f4f4f4;" d="M488.727,46.545H23.273C10.42,46.545,0,56.965,0,69.818v418.909C0,501.582,10.42,512,23.273,512 h465.455C501.58,512,512,501.582,512,488.727V69.818C512,56.965,501.58,46.545,488.727,46.545z"/> <path style="fill:#f4f4f4;" d="M488.727,46.545H256V512h232.727C501.58,512,512,501.582,512,488.727V69.818 C512,56.965,501.58,46.545,488.727,46.545z"/> <path style="fill:#b472fc;" d="M256,418.909c-51.33,0-93.091-41.761-93.091-93.091S204.67,232.727,256,232.727 s93.091,41.761,93.091,93.091S307.33,418.909,256,418.909z M256,279.273c-25.665,0-46.545,20.88-46.545,46.545 s20.88,46.545,46.545,46.545s46.545-20.88,46.545-46.545S281.665,279.273,256,279.273z"/> <path style="fill:#b472fc;" d="M256,232.727v46.545c25.665,0,46.545,20.88,46.545,46.545s-20.88,46.545-46.545,46.545v46.545 c51.33,0,93.091-41.761,93.091-93.091S307.33,232.727,256,232.727z"/> <path style="fill:#0f65c1;" d="M488.727,46.545H23.273C10.42,46.545,0,56.965,0,69.818v93.091c0,12.854,10.42,23.273,23.273,23.273 h465.455c12.853,0,23.273-10.418,23.273-23.273V69.818C512,56.965,501.58,46.545,488.727,46.545z"/> <path style="fill:#0f65c1;" d="M488.727,46.545H256v139.636h232.727c12.853,0,23.273-10.418,23.273-23.273V69.818 C512,56.965,501.58,46.545,488.727,46.545z"/> <path style="fill:#263442;" d="M333.576,0c-12.853,0-23.273,10.42-23.273,23.273v46.545c0,12.854,10.42,23.273,23.273,23.273 s23.273-10.418,23.273-23.273V23.273C356.848,10.42,346.428,0,333.576,0z"/> <path style="fill:#263442;" d="M178.424,0c-12.853,0-23.273,10.42-23.273,23.273v46.545c0,12.854,10.42,23.273,23.273,23.273 c12.853,0,23.273-10.418,23.273-23.273V23.273C201.697,10.42,191.277,0,178.424,0z"/> </g>
</svg>